<svg version="1.1" id="Layer_1" xmlns="http://www.w3.org/2000/svg" xmlns:xlink="http://www.w3.org/1999/xlink" x="0px" y="0px"
   width="100%" viewBox="134 91 295 375" enable-background="new 134 91 295 375" xml:space="preserve">
<path fill="#676AA9" opacity="1.000000" stroke="none" 
  d="
M186.196442,145.202133 
  C221.701721,108.356697 264.445770,89.186554 315.546265,91.214973 
  C349.009857,92.543304 378.441528,104.213654 400.260223,130.802094 
  C429.298401,166.188309 428.703949,217.779984 399.405823,254.041534 
  C383.903748,273.228058 364.405090,287.559174 342.404694,297.868774 
  C313.485107,311.420746 283.864532,323.491852 254.425476,335.915558 
  C228.273529,346.952026 202.570282,358.729156 180.344513,376.816101 
  C160.883087,392.653503 145.398712,411.478760 136.823364,435.420593 
  C136.604538,436.031555 136.214310,436.581116 135.906219,437.155182 
  C135.566696,436.998383 135.088913,436.883942 135.086929,436.761780 
  C134.724640,414.472809 133.183472,392.103088 140.262878,370.377472 
  C149.678162,341.483368 168.153244,319.579193 192.590042,302.262512 
  C214.760132,286.552124 239.584137,275.953979 264.268158,265.055176 
  C283.452972,256.584442 302.794189,248.355011 319.730865,235.613083 
  C331.656067,226.641434 340.092896,215.415009 341.865875,200.218872 
  C344.706573,175.871338 329.780609,158.672577 304.405640,158.270859 
  C268.807312,157.707321 243.193466,174.824997 226.144882,205.370255 
  C215.699081,224.085556 211.639893,244.577148 210.875229,265.807617 
  C210.780807,268.429199 210.571091,270.406860 207.735764,271.825867 
  C182.005844,284.703186 159.936523,302.034302 143.110092,325.635040 
  C142.934082,325.881927 142.598175,326.014771 141.616943,326.713562 
  C140.548737,319.125305 139.241028,311.966919 138.574280,304.749268 
  C134.585876,261.574402 139.312088,219.772720 160.810028,181.350403 
  C167.905975,168.668106 177.505096,157.386398 186.196442,145.202133 
z"/>
<path fill="#676BAA" opacity="1.000000" stroke="none" 
  d="
M421.753235,410.955475 
  C423.523529,419.630737 419.532776,424.261841 412.919830,428.719238 
  C362.384308,462.782349 307.861938,473.857544 248.899185,456.685883 
  C221.779785,448.787933 199.098282,433.097443 180.876175,411.298492 
  C179.400909,409.533691 178.061768,407.655121 176.093826,405.093109 
  C182.908737,399.240509 188.953827,392.888885 196.085358,388.184204 
  C208.134781,380.235260 220.830795,373.256683 233.384857,366.097931 
  C234.606979,365.401062 237.557785,365.619995 238.328201,366.552399 
  C266.170471,400.249420 301.824005,403.682159 340.821075,392.655548 
  C368.870026,384.724548 391.960052,368.176880 413.026001,348.558533 
  C415.462891,346.289124 417.855896,343.972626 420.278931,341.688263 
  C420.386993,341.586395 420.592010,341.587402 421.752838,341.246857 
  C421.752838,364.507507 421.752838,387.485565 421.753235,410.955475 
z"/>
</svg>