<?xml version="1.0" standalone="no"?>
<svg version="1.0" xmlns="http://www.w3.org/2000/svg"
 width="500pt" height="500pt" viewBox="350 160 380 700"
 preserveAspectRatio="xMidYMid meet">

<g transform="translate(0.000000,1024.000000) scale(0.100000,-0.100000)"
fill="#c8b1e4" stroke="none">
<path d="M4985 8334 c-275 -28 -334 -38 -525 -95 -288 -86 -553 -220 -793 -401 -123 -92 -341 -316 -443 -453 -237 -320 -362 -613 -435 -1020 -27 -151 -37 -456 -19 -607 66 -570 315 -1076 721 -1463 307 -293 735 -518 1140 -599 196 -39 315 -49 504 -43 144 5 360 29 372 40 3 4 -52 151 -187 502 -34 88 -70 183 -81 211 l-19 51 -173 6 c-188 6 -265 19 -427 73 -224 75 -408 189 -580 363 -232 232 -357 464 -431 801 -31 140 -34 412 -5 565 89 482 385 879 813 1094 436 218 934 213 1386 -16 115 -58 263 -169 383 -288 258 -257 399 -557 434 -925 14 -145 8 -272 -21 -415 -69 -341 -203 -582 -466 -836 -100 -96 -262 -218 -312 -234 -20 -6 -20 -6 3 -68 13 -34 63 -163 110 -287 99 -256 157 -400 163 -400 9 0 150 74 230 122 390 230 746 625 919 1020 90 207 151 423 185 656 19 128 21 176 16 372 -4 190 -9 244 -31 346 -107 504 -315 894 -661 1239 -182 182 -382 321 -640 446 -325 157 -623 233 -950 243 -77 2 -158 2 -180 0z"/>
<path d="M4854 7181 c-253 -45 -443 -144 -622 -323 -166 -167 -268 -351 -317 -572 -21 -98 -16 -155 19 -201 76 -100 233 -48 251 82 34 250 180 480 394 618 115 75 226 113 387 136 90 12 121 26 158 69 69 82 -11 212 -129 209 -22 0 -85 -9 -141 -18z"/>
<path d="M6319 3492 c-97 -37 -317 -119 -488 -182 -171 -63 -311 -120 -311 -127 0 -6 39 -110 86 -230 93 -236 304 -791 348 -915 48 -134 150 -259 257 -313 226 -116 471 -83 640 86 118 117 169 264 149 424 -9 70 -32 137 -158 465 -33 85 -89 232 -126 325 -179 466 -204 529 -212 531 -5 1 -88 -28 -185 -64z"/>
</g>
</svg>